<svg width="2214" height="2214" xmlns="http://www.w3.org/2000/svg" xmlns:xlink="http://www.w3.org/1999/xlink" overflow="hidden"><defs><clipPath id="clip0"><rect x="1050" y="179" width="2214" height="2214"/></clipPath><linearGradient x1="3264" y1="1286" x2="1050" y2="1286" gradientUnits="userSpaceOnUse" spreadMethod="reflect" id="fill1"><stop offset="0" stop-color="#00B011"/><stop offset="0.99" stop-color="#37E93B"/><stop offset="1" stop-color="#37E93B"/></linearGradient><linearGradient x1="2944.48" y1="2064.04" x2="1369.77" y2="507.389" gradientUnits="userSpaceOnUse" spreadMethod="reflect" id="fill2"><stop offset="0" stop-color="#00B011"/><stop offset="0.99" stop-color="#37E93B"/><stop offset="1" stop-color="#37E93B"/></linearGradient><linearGradient x1="2935.2" y1="498.11" x2="1379.05" y2="2073.32" gradientUnits="userSpaceOnUse" spreadMethod="reflect" id="fill3"><stop offset="0" stop-color="#00B011"/><stop offset="0.99" stop-color="#37E93B"/><stop offset="1" stop-color="#37E93B"/></linearGradient><linearGradient x1="2348" y1="1286" x2="1966" y2="1286" gradientUnits="userSpaceOnUse" spreadMethod="reflect" id="fill4"><stop offset="0" stop-color="#00B011"/><stop offset="0.99" stop-color="#37E93B"/><stop offset="1" stop-color="#37E93B"/></linearGradient><linearGradient x1="2906" y1="1285.5" x2="1409" y2="1285.5" gradientUnits="userSpaceOnUse" spreadMethod="reflect" id="fill5"><stop offset="0" stop-color="#00B004"/><stop offset="0.99" stop-color="#37E93B"/><stop offset="1" stop-color="#37E93B"/></linearGradient><clipPath id="clip6"><rect x="2170" y="777" width="407" height="407"/></clipPath><clipPath id="clip7"><rect x="2170" y="777" width="407" height="407"/></clipPath><clipPath id="clip8"><rect x="2170" y="777" width="407" height="407"/></clipPath><clipPath id="clip9"><path d="M2814.63 1495.47 2593.36 1836.14 2252.69 1614.87 2473.95 1274.2Z" fill-rule="evenodd" clip-rule="evenodd"/></clipPath><clipPath id="clip10"><path d="M2814.63 1495.47 2593.36 1836.14 2252.69 1614.87 2473.95 1274.2Z" fill-rule="evenodd" clip-rule="evenodd"/></clipPath><clipPath id="clip11"><path d="M2814.63 1495.47 2593.36 1836.14 2252.69 1614.87 2473.95 1274.2Z" fill-rule="evenodd" clip-rule="evenodd"/></clipPath><clipPath id="clip12"><path d="M2068.52 902.895 1847.25 1243.57 1506.58 1022.3 1727.84 681.629Z" fill-rule="evenodd" clip-rule="evenodd"/></clipPath><clipPath id="clip13"><path d="M2068.52 902.895 1847.25 1243.57 1506.58 1022.3 1727.84 681.629Z" fill-rule="evenodd" clip-rule="evenodd"/></clipPath><clipPath id="clip14"><path d="M2068.52 902.895 1847.25 1243.57 1506.58 1022.3 1727.84 681.629Z" fill-rule="evenodd" clip-rule="evenodd"/></clipPath><clipPath id="clip15"><rect x="1704" y="1251" width="408" height="407"/></clipPath><clipPath id="clip16"><rect x="1704" y="1251" width="408" height="407"/></clipPath><clipPath id="clip17"><rect x="1704" y="1251" width="408" height="407"/></clipPath></defs><g clip-path="url(#clip0)" transform="translate(-1050 -179)"><path d="M3132.92 1095C3205.31 1095 3264 1153.69 3264 1226.08L3264 1345.92C3264 1418.31 3205.31 1477 3132.92 1477L1181.08 1477C1108.69 1477 1050 1418.31 1050 1345.92L1050 1226.08C1050 1153.69 1108.69 1095 1181.08 1095Z" fill="url(#fill1)" fill-rule="evenodd"/><path d="M2985.57 1835.88C3037.09 1886.81 3037.57 1969.87 2986.64 2021.39L2902.32 2106.69C2851.39 2158.21 2768.33 2158.69 2716.81 2107.76L1328.68 735.549C1277.15 684.617 1276.68 601.56 1327.61 550.036L1411.92 464.743C1462.86 413.219 1545.91 412.74 1597.44 463.672Z" fill="url(#fill2)" fill-rule="evenodd"/><path d="M1607.22 2114.34C1556.31 2165.87 1473.25 2166.38 1421.71 2115.46L1336.39 2031.18C1284.85 1980.26 1284.34 1897.2 1335.26 1845.66L2707.03 457.094C2757.94 405.555 2841 405.049 2892.54 455.965L2977.86 540.254C3029.4 591.17 3029.9 674.226 2978.99 725.766Z" fill="url(#fill3)" fill-rule="evenodd"/><path d="M1966 356.08C1966 283.686 2024.69 225 2097.08 225L2216.92 225C2289.31 225 2348 283.686 2348 356.08L2348 2215.92C2348 2288.31 2289.31 2347 2216.92 2347L2097.08 2347C2024.69 2347 1966 2288.31 1966 2215.92Z" fill="#FFFFFF" fill-rule="evenodd"/><path d="M1966 310.08C1966 237.686 2024.69 179 2097.08 179L2216.92 179C2289.31 179 2348 237.686 2348 310.08L2348 2261.92C2348 2334.31 2289.31 2393 2216.92 2393L2097.08 2393C2024.69 2393 1966 2334.31 1966 2261.92Z" fill="url(#fill4)" fill-rule="evenodd"/><path d="M1409 1285.5C1409 872.115 1744.11 537 2157.5 537 2570.89 537 2906 872.115 2906 1285.5 2906 1698.89 2570.89 2034 2157.5 2034 1744.11 2034 1409 1698.89 1409 1285.5Z" fill="url(#fill5)" fill-rule="evenodd"/><g clip-path="url(#clip6)"><g clip-path="url(#clip7)"><g clip-path="url(#clip8)"><path d="M2358.16 1091.34C2364.21 1079.29 2369.18 1066.72 2373 1053.78 2376.82 1066.72 2381.79 1079.29 2387.84 1091.34 2399.5 1110.9 2424.55 1117.73 2444.52 1106.78 2454.07 1101.22 2461.03 1092.09 2463.84 1081.4 2466.84 1070.82 2465.44 1059.47 2459.95 1049.94 2451.17 1037.14 2440.89 1025.45 2429.33 1015.09 2444.08 1019.84 2459.34 1022.81 2474.8 1023.93 2497.58 1023.2 2515.46 1004.13 2514.73 981.349 2514.03 959.589 2496.56 942.112 2474.8 941.415 2459.34 942.509 2444.07 945.477 2429.33 950.254 2440.9 939.892 2451.18 928.178 2459.95 915.363 2465.45 905.831 2466.85 894.482 2463.84 883.898 2461.02 873.211 2454.07 864.082 2444.52 858.523 2424.55 847.573 2399.5 854.396 2387.84 873.96 2381.77 886.093 2376.81 898.747 2373 911.768 2369.18 898.848 2364.21 886.294 2358.16 874.256 2346.5 854.692 2321.45 847.869 2301.48 858.819 2291.93 864.378 2284.98 873.507 2282.16 884.194 2281.16 887.861 2280.64 891.643 2280.64 895.444 2280.61 902.543 2282.48 909.52 2286.05 915.659 2294.82 928.474 2305.1 940.188 2316.67 950.55 2301.93 945.773 2286.66 942.805 2271.2 941.711 2248.42 942.44 2230.54 961.503 2231.27 984.288 2231.97 1006.05 2249.44 1023.52 2271.2 1024.22 2286.66 1023.11 2301.92 1020.14 2316.67 1015.38 2305.11 1025.74 2294.83 1037.44 2286.05 1050.23 2282.49 1056.39 2280.62 1063.38 2280.64 1070.49 2280.64 1074.28 2281.15 1078.04 2282.16 1081.7 2284.97 1092.39 2291.93 1101.52 2301.48 1107.07 2321.53 1117.97 2346.6 1111.01 2358.16 1091.34ZM2331.51 982.776C2331.54 959.863 2350.13 941.307 2373.04 941.33 2395.96 941.354 2414.51 959.948 2414.49 982.861 2414.46 1005.76 2395.9 1024.31 2373 1024.31 2350.08 1024.28 2331.51 1005.7 2331.51 982.776Z" fill="#FFFFFF" fill-opacity="0.6"/></g></g></g><g clip-path="url(#clip9)"><g clip-path="url(#clip10)"><g clip-path="url(#clip11)"><path d="M2461.07 1639.66C2472.72 1632.85 2483.74 1625.02 2493.99 1616.24 2490.14 1629.18 2487.46 1642.43 2485.98 1655.84 2485.1 1678.61 2502.4 1697.99 2525.12 1699.68 2536.17 1700.23 2546.98 1696.36 2555.16 1688.92 2563.45 1681.68 2568.46 1671.39 2569.05 1660.4 2568.65 1644.88 2566.4 1629.46 2562.35 1614.47 2572.13 1626.5 2583.32 1637.31 2595.68 1646.67 2615.19 1658.47 2640.59 1652.22 2652.39 1632.7 2663.67 1614.07 2658.53 1589.87 2640.65 1577.43 2627.08 1569.93 2612.65 1564.1 2597.68 1560.07 2613.03 1557.68 2628.04 1553.45 2642.39 1547.48 2652.19 1542.48 2659.56 1533.72 2662.8 1523.2 2666.26 1512.69 2665.4 1501.25 2660.41 1491.37 2649.63 1471.3 2624.89 1463.38 2604.45 1473.44 2592.74 1480.32 2581.68 1488.23 2571.39 1497.08 2575.22 1484.15 2577.89 1470.91 2579.37 1457.51 2580.26 1434.74 2562.96 1415.36 2540.24 1413.67 2529.19 1413.13 2518.38 1417 2510.19 1424.43 2507.35 1426.96 2504.86 1429.86 2502.78 1433.04 2498.89 1438.99 2496.66 1445.86 2496.31 1452.95 2496.68 1468.49 2498.92 1483.92 2502.98 1498.92 2493.22 1486.88 2482.02 1476.07 2469.65 1466.72 2450.14 1454.92 2424.74 1461.17 2412.94 1480.69 2401.66 1499.32 2406.81 1523.51 2424.68 1535.96 2438.26 1543.44 2452.68 1549.27 2467.65 1553.32 2452.31 1555.71 2437.31 1559.93 2422.96 1565.87 2416.62 1569.1 2411.24 1573.94 2407.38 1579.92 2405.32 1583.1 2403.7 1586.54 2402.55 1590.15 2399.09 1600.66 2399.95 1612.11 2404.94 1621.98 2415.82 1642.05 2440.65 1649.87 2461.07 1639.66ZM2497.88 1534.05C2510.38 1514.84 2536.1 1509.4 2555.31 1521.91 2574.52 1534.41 2579.96 1560.13 2567.45 1579.34 2554.96 1598.54 2529.27 1603.99 2510.05 1591.51 2490.83 1579 2485.38 1553.28 2497.88 1534.05Z" fill="#FFFFFF" fill-opacity="0.6"/></g></g></g><g clip-path="url(#clip12)"><g clip-path="url(#clip13)"><g clip-path="url(#clip14)"><path d="M1714.96 1047.09C1726.61 1040.28 1737.63 1032.45 1747.88 1023.67 1744.03 1036.61 1741.35 1049.86 1739.87 1063.27 1738.98 1086.04 1756.29 1105.42 1779.01 1107.11 1790.05 1107.66 1800.86 1103.79 1809.05 1096.35 1817.34 1089.11 1822.35 1078.82 1822.94 1067.83 1822.54 1052.31 1820.29 1036.89 1816.24 1021.9 1826.02 1033.93 1837.21 1044.74 1849.57 1054.1 1869.08 1065.9 1894.48 1059.65 1906.28 1040.13 1917.56 1021.49 1912.41 997.304 1894.54 984.861 1880.97 977.356 1866.54 971.526 1851.57 967.5 1866.92 965.11 1881.93 960.883 1896.28 954.911 1906.08 949.906 1913.45 941.148 1916.69 930.629 1920.15 920.124 1919.29 908.675 1914.3 898.804 1903.52 878.734 1878.78 870.807 1858.34 880.872 1846.63 887.745 1835.57 895.655 1825.28 904.507 1829.11 891.581 1831.78 878.34 1833.26 864.94 1834.15 842.173 1816.85 822.795 1794.12 821.102 1783.08 820.56 1772.27 824.43 1764.08 831.861 1761.24 834.392 1758.75 837.287 1756.67 840.471 1752.78 846.416 1750.55 853.289 1750.19 860.384 1750.57 875.917 1752.81 891.349 1756.87 906.347 1747.11 894.306 1735.91 883.495 1723.54 874.154 1704.03 862.348 1678.63 868.599 1666.83 888.116 1655.55 906.754 1660.69 930.944 1678.57 943.388 1692.15 950.874 1706.57 956.703 1721.54 960.749 1706.2 963.143 1691.2 967.358 1676.85 973.303 1670.51 976.527 1665.13 981.374 1661.27 987.351 1659.21 990.532 1657.59 993.974 1656.44 997.584 1652.98 1008.09 1653.84 1019.54 1658.83 1029.41 1669.71 1049.48 1694.54 1057.3 1714.96 1047.09ZM1751.77 941.478C1764.27 922.265 1789.99 916.828 1809.2 929.335 1828.41 941.842 1833.85 967.557 1821.34 986.771 1808.85 1005.97 1783.16 1011.42 1763.94 998.937 1744.72 986.426 1739.27 960.71 1751.77 941.478Z" fill="#FFFFFF" fill-opacity="0.6"/></g></g></g><g clip-path="url(#clip15)"><g clip-path="url(#clip16)"><g clip-path="url(#clip17)"><path d="M313.339 217.844C301.289 211.785 288.72 206.817 275.784 203 288.72 199.183 301.289 194.215 313.339 188.156 332.902 176.502 339.726 151.45 328.775 131.485 323.22 121.928 314.09 114.974 303.4 112.158 292.816 109.156 281.469 110.559 271.935 116.048 259.144 124.834 247.446 135.113 237.087 146.667 241.843 131.922 244.81 116.658 245.926 101.204 245.197 78.4193 226.134 60.5401 203.349 61.2696 181.589 61.9662 164.112 79.444 163.415 101.204 164.51 116.66 167.478 131.927 172.254 146.667 161.892 135.1 150.178 124.82 137.363 116.048 127.831 110.555 116.482 109.151 105.898 112.158 95.2108 114.978 86.0826 121.931 80.5233 131.485 69.5728 151.45 76.3965 176.502 95.9598 188.156 108.093 194.225 120.747 199.193 133.769 203 120.848 206.824 108.294 211.791 96.2558 217.844 76.6926 229.498 69.8688 254.55 80.8194 274.515 86.3786 284.069 95.5068 291.022 106.194 293.842 109.861 294.844 113.643 295.355 117.444 295.365 124.543 295.386 131.52 293.518 137.659 289.952 150.474 281.18 162.189 270.9 172.55 259.332 167.774 274.073 164.806 289.34 163.711 304.796 164.441 327.581 183.503 345.46 206.288 344.73 228.048 344.034 245.525 326.556 246.222 304.796 245.106 289.342 242.139 274.079 237.383 259.332 247.742 270.887 259.44 281.166 272.231 289.952 278.387 293.514 285.377 295.382 292.489 295.365 296.276 295.358 300.045 294.846 303.696 293.842 314.386 291.026 323.516 284.072 329.071 274.515 339.971 254.474 333.01 229.399 313.339 217.844ZM204.776 244.488C181.863 244.465 163.307 225.871 163.33 202.958 163.354 180.045 181.948 161.489 204.861 161.512 227.758 161.535 246.307 180.103 246.307 203 246.283 225.92 227.696 244.488 204.776 244.488Z" fill="#FFFFFF" fill-opacity="0.6" transform="matrix(6.12323e-17 1 -1.00246 6.13832e-17 2112 1251)"/></g></g></g></g></svg>