<svg width="983" height="983" xmlns="http://www.w3.org/2000/svg" xmlns:xlink="http://www.w3.org/1999/xlink" overflow="hidden"><defs><clipPath id="clip0"><rect x="529" y="748" width="983" height="983"/></clipPath></defs><g clip-path="url(#clip0)" transform="translate(-529 -748)"><path d="M688 1239.5C688 1055.87 836.865 907 1020.5 907 1204.13 907 1353 1055.87 1353 1239.5 1353 1423.13 1204.13 1572 1020.5 1572 836.865 1572 688 1423.13 688 1239.5Z" fill="#FFFFFF" fill-rule="evenodd"/><path d="M935 827.334C935 795.117 961.117 769 993.334 769L1046.67 769C1078.88 769 1105 795.117 1105 827.334L1105 1652.67C1105 1684.88 1078.88 1711 1046.67 1711L993.334 1711C961.117 1711 935 1684.88 935 1652.67Z" fill="#FFFFFF" fill-rule="evenodd"/><path d="M926 810.451C926 775.96 953.961 748 988.452 748L1045.55 748C1080.04 748 1108 775.96 1108 810.451L1108 1668.55C1108 1703.04 1080.04 1731 1045.55 1731L988.452 1731C953.961 1731 926 1703.04 926 1668.55Z" fill="#FFFFFF" fill-rule="evenodd"/><path d="M1449.55 1153C1484.04 1153 1512 1180.96 1512 1215.45L1512 1272.55C1512 1307.04 1484.04 1335 1449.55 1335L591.451 1335C556.96 1335 529 1307.04 529 1272.55L529 1215.45C529 1180.96 556.96 1153 591.451 1153Z" fill="#FFFFFF" fill-rule="evenodd"/><path d="M1384.92 1480.98C1409.52 1505.29 1409.75 1544.93 1385.43 1569.53L1345.19 1610.24C1320.88 1634.83 1281.23 1635.06 1256.64 1610.75L646.419 1007.53C621.827 983.216 621.598 943.572 645.909 918.979L686.154 878.267C710.464 853.674 750.109 853.445 774.702 877.756Z" fill="#FFFFFF" fill-rule="evenodd"/><path d="M779.011 1604.59C754.708 1629.19 715.063 1629.44 690.463 1605.13L649.738 1564.9C625.137 1540.6 624.896 1500.95 649.199 1476.35L1252.23 865.939C1276.53 841.338 1316.17 841.097 1340.77 865.4L1381.5 905.632C1406.1 929.935 1406.34 969.579 1382.04 994.18Z" fill="#FFFFFF" fill-rule="evenodd"/></g></svg>